<?xml version="1.0" encoding="UTF-8" standalone="no"?>
<!-- Created with Inkscape (http://www.inkscape.org/) -->

<svg
   xmlns:dc="http://purl.org/dc/elements/1.1/"
   xmlns:cc="http://creativecommons.org/ns#"
   xmlns:rdf="http://www.w3.org/1999/02/22-rdf-syntax-ns#"
   xmlns:svg="http://www.w3.org/2000/svg"
   xmlns="http://www.w3.org/2000/svg"
   xmlns:sodipodi="http://sodipodi.sourceforge.net/DTD/sodipodi-0.dtd"
   xmlns:inkscape="http://www.inkscape.org/namespaces/inkscape"
   width="744.09448"
   height="1052.3622"
   id="svg3352"
   version="1.1"
   inkscape:version="0.91 r13725"
   viewBox="0 0 744.09448 1052.3622"
   sodipodi:docname="logo.svg">
  <defs
     id="defs3354" />
  <sodipodi:namedview
     id="base"
     pagecolor="#ffffff"
     bordercolor="#ffffff"
     borderopacity="0.0"
     inkscape:pageopacity="0.0"
     inkscape:pageshadow="0"
     inkscape:zoom="0.49497475"
     inkscape:cx="-540.19735"
     inkscape:cy="781.12322"
     inkscape:document-units="px"
     inkscape:current-layer="layer1"
     showgrid="true"
     inkscape:snap-bbox="true"
     inkscape:bbox-paths="true"
     inkscape:bbox-nodes="true"
     inkscape:snap-bbox-edge-midpoints="true"
     inkscape:snap-bbox-midpoints="true"
     inkscape:window-width="1920"
     inkscape:window-height="994"
     inkscape:window-x="0"
     inkscape:window-y="26"
     inkscape:window-maximized="1">
    <inkscape:grid
       type="xygrid"
       id="grid3547" />
  </sodipodi:namedview>
  <metadata
     id="metadata3357">
    <rdf:RDF>
      <cc:Work
         rdf:about="">
        <dc:format>image/svg+xml</dc:format>
        <dc:type
           rdf:resource="http://purl.org/dc/dcmitype/StillImage" />
        <dc:title></dc:title>
      </cc:Work>
    </rdf:RDF>
  </metadata>
  <g
     inkscape:label="Layer 1"
     inkscape:groupmode="layer"
     id="layer1">
    <g
       id="g3514"
       transform="matrix(0.28750627,0,0,0.28086914,-176.88253,80.677806)">
      <path
         id="path3361"
         d="m -586.0869,485.7174 -202.485,-21.814 -202.486,21.814 c -12.048,0 -21.814,9.767 -21.814,21.814 l 0,0 c 0,12.048 9.767,21.814 21.814,21.814 l 203.059,24.368 201.912,-24.368 c 12.048,0 21.814,-9.767 21.814,-21.814 l 0,0 c 0,-12.047 -9.766,-21.814 -21.814,-21.814 z"
         style="fill:#4cc7b3"
         inkscape:connector-curvature="0" />
      <path
         id="path3363"
         d="m -941.0579,529.3464 c -12.048,0 -21.814,-9.767 -21.814,-21.814 l 0,0 c 0,-12.047 9.767,-21.814 21.814,-21.814 l 177.486,-19.122 -25,-2.693 -202.486,21.814 c -12.048,0 -21.814,9.767 -21.814,21.814 l 0,0 c 0,12.048 9.767,21.814 21.814,21.814 l 203.059,24.368 24.929,-3.009 -177.988,-21.358 z"
         style="fill:#2aac92"
         inkscape:connector-curvature="0" />
      <path
         id="path3365"
         d="m -586.0869,442.0884 -202.485,-28.174 -202.486,28.174 c -12.048,0 -21.814,9.767 -21.814,21.814 l 0,0 c 0,12.048 9.767,21.814 21.814,21.814 l 404.971,0 c 12.048,0 21.814,-9.767 21.814,-21.814 l 0,0 c 0.001,-12.047 -9.766,-21.814 -21.814,-21.814 z"
         style="fill:#f9545b"
         inkscape:connector-curvature="0" />
      <path
         id="path3367"
         d="m -962.8719,463.9034 c 0,-12.048 9.767,-21.814 21.814,-21.814 l 177.486,-24.697 -25,-3.479 -202.486,28.175 c -12.048,0 -21.814,9.767 -21.814,21.814 0,12.047 9.767,21.814 21.814,21.814 l 50,0 c -12.047,10e-4 -21.814,-9.765 -21.814,-21.813 z"
         style="fill:#e64047"
         inkscape:connector-curvature="0" />
      <path
         id="path3369"
         d="m -578.4289,572.9744 -0.95,-23.492 -419.336,0 0,23.492 c -16.681,0 -30.204,13.523 -30.204,30.204 l 0,0 c 0,16.681 13.523,30.204 30.204,30.204 l 210.143,38.595 210.143,-38.594 c 16.681,0 30.204,-13.523 30.204,-30.204 l 0,0 c 0,-16.682 -13.523,-30.205 -30.204,-30.205 z"
         style="fill:#a8503c"
         inkscape:connector-curvature="0" />
      <path
         id="path3371"
         d="m -932.3989,635.9364 c -18.562,0 -33.609,-15.047 -33.609,-33.608 l 0,0 c 0,-18.562 15.047,-33.608 33.609,-33.608 l 0,-19.237 -66.316,0 0,23.492 c -16.681,0 -30.204,13.523 -30.204,30.204 l 0,0 c 0,16.681 13.523,30.204 30.204,30.204 l 210.143,38.595 26.207,-4.813 -170.034,-31.229 z"
         style="fill:#993e29"
         inkscape:connector-curvature="0" />
      <path
         id="path3373"
         d="m -727.5909,262.7224 -121.963,0 c -99.061,0 -179.366,80.305 -179.366,179.366 l 0,0 480.695,0 0,0 c 0,-99.061 -80.305,-179.366 -179.366,-179.366 z"
         style="fill:#fdc464"
         inkscape:connector-curvature="0" />
      <path
         id="path3375"
         d="m -799.5539,262.7224 -50,0 c -99.061,0 -179.366,80.305 -179.366,179.366 l 0,0 50,0 0,0 c 0,-99.061 80.305,-179.366 179.366,-179.366 z"
         style="fill:#e6b25b"
         inkscape:connector-curvature="0" />
      <path
         id="path3377"
         d="m -588.8689,529.3464 c 20.023,0 25.871,12.947 27.136,24.359 2.091,18.864 -20.503,30.872 -34.491,18.044 -0.354,-0.325 -0.701,-0.662 -1.04,-1.012 l 0,0 c -9.486,-9.792 -25.193,-9.792 -34.679,0 l 0,0 c -9.486,9.792 -25.193,9.792 -34.679,0 l 0,0 c -9.486,-9.792 -25.193,-9.792 -34.679,0 l 0,0 c -9.486,9.792 -25.193,9.792 -34.679,0 l 0,0 c -9.486,-9.792 -25.193,-9.792 -34.679,0 l 0,0 c -9.486,9.792 -25.193,9.792 -34.679,0 l 0,0 c -9.486,-9.792 -25.193,-9.792 -34.679,0 l 0,0 c -9.486,9.792 -25.193,9.792 -34.679,0 l 0,0 c -9.486,-9.792 -25.193,-9.792 -34.679,0 l 0,0 c -9.486,9.792 -25.193,9.792 -34.679,0 l 0,0 c -9.486,-9.792 -25.193,-9.792 -34.679,0 l 0,0 c -0.339,0.35 -0.686,0.687 -1.04,1.012 -13.988,12.828 -36.583,0.82 -34.491,-18.044 1.265,-11.412 7.113,-24.359 27.136,-24.359 l 398.259,0 z"
         style="fill:#e6bb00"
         inkscape:connector-curvature="0" />
      <path
         id="path3379"
         d="m -964.2649,553.7044 c 1.265,-11.412 7.113,-24.358 27.136,-24.358 l -50,0 c -20.023,0 -25.871,12.947 -27.136,24.358 -2.091,18.864 20.503,30.873 34.491,18.044 0.354,-0.325 0.701,-0.662 1.04,-1.012 4.324,-4.463 9.941,-6.885 15.671,-7.28 -1.119,-2.931 -1.593,-6.221 -1.202,-9.752 z"
         style="fill:#cca600"
         inkscape:connector-curvature="0" />
      <path
         id="path3381"
         d="m -561.2859,633.3834 -454.573,0 c -11.716,0 -21.213,9.498 -21.213,21.213 l 0,0 c 0,30.914 25.061,55.976 55.976,55.976 l 385.049,0 c 30.914,0 55.976,-25.061 55.976,-55.976 l 0,0 c -10e-4,-11.716 -9.499,-21.213 -21.215,-21.213 z"
         style="fill:#fdc464"
         inkscape:connector-curvature="0" />
      <path
         id="path3383"
         d="m -987.0719,654.5964 0,0 c 0,-11.716 9.497,-21.213 21.213,-21.213 l -50,0 c -11.716,0 -21.213,9.498 -21.213,21.213 l 0,0 c 0,30.915 25.061,55.976 55.975,55.976 l 50,0 c -30.914,0 -55.975,-25.061 -55.975,-55.976 z"
         style="fill:#e6b25b"
         inkscape:connector-curvature="0" />
      <path
         id="path3385"
         d="m -863.8539,365.2984 0,-14.982 c 0,-4.142 -3.358,-7.5 -7.5,-7.5 -4.142,0 -7.5,3.358 -7.5,7.5 l 0,14.982 c 0,4.142 3.358,7.5 7.5,7.5 4.142,0 7.5,-3.358 7.5,-7.5 z"
         inkscape:connector-curvature="0" />
      <path
         id="path3387"
         d="m -698.2899,365.2984 0,-14.982 c 0,-4.142 -3.358,-7.5 -7.5,-7.5 -4.142,0 -7.5,3.358 -7.5,7.5 l 0,14.982 c 0,4.142 3.358,7.5 7.5,7.5 4.142,0 7.5,-3.358 7.5,-7.5 z"
         inkscape:connector-curvature="0" />
      <path
         id="path3389"
         d="m -788.5719,383.8704 c 11.948,0 23.156,-4.983 30.75,-13.671 2.726,-3.118 2.408,-7.856 -0.71,-10.583 -3.119,-2.727 -7.857,-2.408 -10.583,0.71 -4.746,5.429 -11.837,8.543 -19.457,8.543 -7.62,0 -14.711,-3.114 -19.457,-8.543 -2.726,-3.118 -7.464,-3.437 -10.583,-0.711 -3.119,2.726 -3.437,7.464 -0.711,10.583 7.595,8.689 18.803,13.672 30.751,13.672 z"
         inkscape:connector-curvature="0" />
      <path
         id="path3391"
         d="m -1044.5719,654.5964 c 0,35 28.475,63.476 63.476,63.476 l 385.049,0 c 35,0 63.476,-28.475 63.476,-63.476 0,-11.899 -7.277,-22.13 -17.613,-26.479 5.881,-6.652 9.461,-15.383 9.461,-24.938 0,-13.377 -6.914,-25.301 -17.75,-32.016 3.365,-5.313 4.926,-11.693 4.195,-18.285 -1.163,-10.491 -5.276,-18.602 -11.851,-23.896 5.753,-5.356 9.358,-12.989 9.358,-21.45 0,-8.655 -3.773,-16.444 -9.758,-21.814 5.985,-5.371 9.758,-13.159 9.758,-21.814 0,-5.196 -1.365,-10.077 -3.746,-14.314 l 12.294,0 c 4.142,0 7.5,-3.358 7.5,-7.5 0,-103.039 -83.828,-186.867 -186.866,-186.867 l -121.964,0 c -34.713,0 -68.609,9.599 -98.025,27.758 -3.524,2.176 -4.618,6.797 -2.442,10.322 2.176,3.524 6.797,4.618 10.321,2.442 27.046,-16.697 58.218,-25.522 90.146,-25.522 l 121.963,0 c 92.257,0 167.769,73.061 171.705,164.367 l -465.371,0 c 2.037,-46.598 22.993,-90.551 58.201,-121.543 3.109,-2.737 3.411,-7.476 0.674,-10.585 -2.737,-3.109 -7.477,-3.411 -10.585,-0.674 -40.326,35.496 -63.454,86.634 -63.454,140.301 0,4.142 3.358,7.5 7.5,7.5 l 12.294,0 c -2.381,4.237 -3.747,9.118 -3.747,14.314 0,8.655 3.773,16.443 9.758,21.814 -5.985,5.371 -9.758,13.159 -9.758,21.814 0,8.729 3.841,16.574 9.916,21.949 -6.229,5.299 -10.135,13.226 -11.263,23.397 -0.709,6.396 0.748,12.587 3.909,17.803 -11.239,6.638 -18.61,18.893 -18.61,32.498 0,9.555 3.58,18.286 9.461,24.938 -10.335,4.351 -17.612,14.581 -17.612,26.48 z m 468.302,-86.723 c -3.614,1.961 -8.089,2.299 -11.827,0.462 -3.987,-1.96 -6.657,-5.835 -10.465,-8.084 -12.381,-7.313 -28.792,-5.03 -38.768,5.268 -3.163,3.265 -7.407,5.063 -11.953,5.063 -4.545,0 -8.79,-1.798 -11.953,-5.062 -12.232,-12.626 -33.233,-12.615 -45.453,0 -3.109,3.209 -7.487,5.062 -11.952,5.062 -4.545,0 -8.79,-1.798 -11.953,-5.062 -12.166,-12.557 -33.31,-12.536 -45.452,0 -3.163,3.265 -7.407,5.063 -11.953,5.063 -4.545,0 -8.79,-1.798 -11.953,-5.062 -12.261,-12.656 -33.205,-12.643 -45.453,0 -3.163,3.265 -7.407,5.063 -11.953,5.063 -4.545,0 -8.79,-1.798 -11.952,-5.062 -12.214,-12.608 -33.272,-12.572 -45.453,0 -3.162,3.265 -7.407,5.063 -11.953,5.063 -4.545,0 -8.79,-1.798 -11.952,-5.062 -12.061,-12.45 -33.129,-12.722 -45.451,-0.001 -8.692,8.973 -24.034,1.133 -22.692,-10.986 1.258,-11.343 6.58,-16.849 17.121,-17.59 0.029,-0.002 0.059,-0.001 0.089,-0.003 0.821,-0.059 400.732,-0.093 400.732,-0.093 12.256,0 18.326,5.455 19.682,17.686 0.603,5.44 -2.29,10.737 -7.083,13.337 z m -414.787,-46.028 c -7.893,0 -14.314,-6.421 -14.314,-14.314 0,-7.893 6.421,-14.314 14.314,-14.314 l 321.165,0 c 4.142,0 7.5,-3.358 7.5,-7.5 0,-4.142 -3.358,-7.5 -7.5,-7.5 l -321.165,0 c -7.893,0 -14.314,-6.421 -14.314,-14.314 0,-7.892 6.421,-14.313 14.313,-14.314 l 404.973,0 c 7.892,0 14.313,6.422 14.313,14.314 0,7.892 -6.421,14.314 -14.314,14.314 l -53.806,0 c -4.142,0 -7.5,3.358 -7.5,7.5 0,4.142 3.358,7.5 7.5,7.5 l 53.806,0 c 7.893,0 14.314,6.421 14.314,14.314 0,7.893 -6.421,14.314 -14.314,14.314 -0.928,0 -404.592,0 -404.971,0 z m -14.766,59.763 c 0.19,0.094 0.385,0.169 0.576,0.259 1.031,0.485 2.098,0.92 3.181,1.278 9.442,3.129 19.762,1.091 27.366,-5.872 7.251,-6.639 17.743,-9.077 25.259,-1.317 6.013,6.207 14.084,9.625 22.727,9.625 8.641,0 16.712,-3.418 22.726,-9.625 6.416,-6.622 17.513,-6.6 23.906,0 6.013,6.207 14.084,9.625 22.726,9.625 8.642,0 16.713,-3.418 22.725,-9.624 6.403,-6.609 17.522,-6.592 23.906,-10e-4 6.013,6.207 14.083,9.625 22.726,9.625 8.641,0 16.713,-3.418 22.726,-9.625 6.388,-6.594 17.549,-6.565 23.906,0 6.013,6.207 14.084,9.625 22.726,9.625 8.642,0 16.712,-3.418 22.726,-9.625 6.287,-6.49 17.611,-6.5 23.906,0 6.013,6.207 14.085,9.625 22.727,9.625 8.642,0 16.713,-3.418 22.726,-9.625 6.349,-6.554 17.43,-6.684 23.907,10e-4 8.063,8.321 21.494,10.838 31.994,5.886 8.91,3.217 14.93,11.646 14.93,21.335 0,12.516 -10.181,22.7 -22.695,22.705 l -420.303,0 c -12.515,-0.005 -22.696,-10.189 -22.696,-22.705 -10e-4,-9.86 6.42,-18.549 15.596,-21.57 z m -10.036,59.275 454.573,0 c 7.562,0 13.713,6.152 13.713,13.713 0,26.729 -21.746,48.476 -48.476,48.476 l -385.047,0 c -26.73,0 -48.476,-21.746 -48.476,-48.476 0,-7.561 6.152,-13.713 13.713,-13.713 z"
         inkscape:connector-curvature="0" />
      <g
         transform="translate(-1044.5719,230.6474)"
         id="g3393" />
      <g
         transform="translate(-1044.5719,230.6474)"
         id="g3395" />
      <g
         transform="translate(-1044.5719,230.6474)"
         id="g3397" />
      <g
         transform="translate(-1044.5719,230.6474)"
         id="g3399" />
      <g
         transform="translate(-1044.5719,230.6474)"
         id="g3401" />
      <g
         transform="translate(-1044.5719,230.6474)"
         id="g3403" />
      <g
         transform="translate(-1044.5719,230.6474)"
         id="g3405" />
      <g
         transform="translate(-1044.5719,230.6474)"
         id="g3407" />
      <g
         transform="translate(-1044.5719,230.6474)"
         id="g3409" />
      <g
         transform="translate(-1044.5719,230.6474)"
         id="g3411" />
      <g
         transform="translate(-1044.5719,230.6474)"
         id="g3413" />
      <g
         transform="translate(-1044.5719,230.6474)"
         id="g3415" />
      <g
         transform="translate(-1044.5719,230.6474)"
         id="g3417" />
      <g
         transform="translate(-1044.5719,230.6474)"
         id="g3419" />
      <g
         transform="translate(-1044.5719,230.6474)"
         id="g3421" />
    </g>
    <text
       xml:space="preserve"
       style="font-style:normal;font-weight:normal;font-size:41.76765823px;line-height:125%;font-family:sans-serif;letter-spacing:0px;word-spacing:0px;fill:#000000;fill-opacity:1;stroke:none;stroke-width:1px;stroke-linecap:butt;stroke-linejoin:miter;stroke-opacity:1"
       x="-316.16577"
       y="284.59793"
       id="text3462"
       sodipodi:linespacing="125%"
       transform="scale(1.0043817,0.99563743)"><tspan
         sodipodi:role="line"
         id="tspan3464"
         x="-316.16577"
         y="284.59793"
         style="font-style:normal;font-variant:normal;font-weight:normal;font-stretch:normal;font-size:187.95448303px;font-family:BravoRG;-inkscape-font-specification:BravoRG">DjBurger</tspan></text>
  </g>
</svg>
